<svg width="30" height="40" viewBox="0 0 30 40" fill="none" xmlns="http://www.w3.org/2000/svg"><path d="M27.2548 23.1259C25.8521 21.51 23.9136 20.4537 21.7956 20.1509L16.9334 19.3884V10.903C16.9334 8.88791 15.2939 7.24854 13.2788 7.24854H13.2241C11.2091 7.24854 9.56957 8.88791 9.56957 10.903V24.5304L4.54295 22.3761C3.53328 21.9435 2.38238 22.046 1.46492 22.651C0.547594 23.2558 0 24.2731 0 25.3718V25.4177C0 26.3475 0.398537 27.2353 1.09342 27.8531L9.5697 35.3904V39.0523C9.5697 39.5757 9.99375 39.9997 10.5171 39.9997C11.0404 39.9997 11.4645 39.5757 11.4645 39.0523V34.9651C11.4645 34.6945 11.3488 34.4369 11.1465 34.2572L2.35244 26.4373C2.06153 26.1786 1.89479 25.8071 1.89479 25.4178V25.3719C1.89479 24.9052 2.11837 24.49 2.50794 24.2329C2.89789 23.9759 3.3678 23.934 3.79653 24.1178L10.1428 26.8377C10.2012 26.8629 10.2626 26.8826 10.3264 26.8956C10.4212 26.9152 10.517 26.9195 10.6106 26.91C10.6212 26.909 10.6315 26.907 10.642 26.9056C10.6616 26.9029 10.6813 26.9004 10.7006 26.8966C10.7176 26.8933 10.7341 26.8887 10.7507 26.8845C10.7633 26.8812 10.7759 26.8785 10.7884 26.8748C10.8072 26.8692 10.8256 26.8624 10.8439 26.8556C10.854 26.8519 10.8643 26.8485 10.8743 26.8444C10.8923 26.8371 10.9097 26.8288 10.927 26.8204C10.9372 26.8155 10.9477 26.811 10.9577 26.8057C10.9732 26.7974 10.9881 26.7884 11.0032 26.7794C11.0147 26.7724 11.0264 26.7659 11.0377 26.7584C11.0503 26.7501 11.0622 26.741 11.0744 26.7321C11.0873 26.7227 11.1003 26.7136 11.1128 26.7035C11.1228 26.6954 11.1321 26.6865 11.1419 26.6781C11.1553 26.6662 11.1689 26.6545 11.1817 26.6418C11.1902 26.6334 11.1982 26.6243 11.2064 26.6156C11.219 26.6022 11.2317 26.589 11.2434 26.5747C11.2525 26.5639 11.2606 26.5524 11.2692 26.5413C11.2791 26.5284 11.289 26.5159 11.2983 26.5025C11.3099 26.4854 11.3204 26.4678 11.3308 26.4499C11.3359 26.4415 11.3413 26.4335 11.3461 26.4249C11.3916 26.3426 11.4255 26.2529 11.4449 26.1579C11.458 26.0944 11.4641 26.0303 11.4641 25.9669V10.903C11.4641 9.93269 12.2535 9.14332 13.2239 9.14332H13.2786C14.2489 9.14332 15.0383 9.93269 15.0383 10.903V20.0011C15.0383 20.0361 15.0406 20.0707 15.0443 20.1047C14.9942 20.6015 15.3397 21.0565 15.8389 21.1347L21.5081 22.0236C21.5127 22.0244 21.5171 22.025 21.5217 22.0257C24.951 22.513 27.5371 25.4924 27.5371 28.9564V29.0531C27.5371 30.6561 27.1459 32.2552 26.4058 33.6772L23.8358 38.6147C23.5942 39.079 23.7747 39.6509 24.2387 39.8925C24.3784 39.9652 24.5279 39.9998 24.6753 39.9998C25.0173 39.9998 25.3476 39.8139 25.5164 39.4896L28.0863 34.5521C28.9667 32.8609 29.4318 30.9595 29.4318 29.0531V28.9564C29.4322 26.8144 28.6588 24.7438 27.2548 23.1259Z" fill="#1F4D0B"/><path d="M13.2515 4.7736C13.7748 4.7736 14.1989 4.34955 14.1989 3.82621V0.947394C14.1989 0.424054 13.7748 0 13.2515 0C12.7282 0 12.3041 0.424054 12.3041 0.947394V3.82621C12.3041 4.34955 12.7283 4.7736 13.2515 4.7736Z" fill="#1F4D0B"/><path d="M19.1195 12.4926C19.1195 13.0159 19.5436 13.44 20.0669 13.44H22.9457C23.4691 13.44 23.8931 13.0159 23.8931 12.4926C23.8931 11.9692 23.4691 11.5452 22.9457 11.5452H20.0669C19.5437 11.5452 19.1195 11.9693 19.1195 12.4926Z" fill="#1F4D0B"/><path d="M19.316 7.13293C19.5584 7.13293 19.801 7.04047 19.986 6.85554L22.0217 4.8199C22.3916 4.44979 22.3916 3.85002 22.0217 3.48003C21.6515 3.11017 21.0518 3.11017 20.6818 3.48003L18.646 5.51554C18.276 5.88566 18.276 6.48542 18.646 6.85541C18.8311 7.04034 19.0736 7.13293 19.316 7.13293Z" fill="#1F4D0B"/><path d="M5.77164 6.85554C5.9567 7.04047 6.19923 7.13293 6.44164 7.13293C6.68405 7.13293 6.92658 7.04047 7.11164 6.85554C7.48163 6.48542 7.48163 5.88566 7.11164 5.51567L5.07587 3.48003C4.70576 3.11017 4.10599 3.11017 3.736 3.48003C3.36601 3.85015 3.36601 4.44991 3.736 4.8199L5.77164 6.85554Z" fill="#1F4D0B"/><path d="M2.85343 13.44H5.73225C6.25559 13.44 6.67964 13.0159 6.67964 12.4926C6.67964 11.9692 6.25559 11.5452 5.73225 11.5452H2.85343C2.33009 11.5452 1.90604 11.9692 1.90604 12.4926C1.90604 13.0159 2.33009 13.44 2.85343 13.44Z" fill="#1F4D0B"/></svg>