<svg width="40" height="40" viewBox="0 0 40 40" fill="none" xmlns="http://www.w3.org/2000/svg"><g clip-path="url(#clip0_245_1906)"><path d="M40.4931 33.0976L35.466 29.633C34.6896 29.0979 33.6291 29.6552 33.6291 30.5979V32.8906H26.8208C26.2752 30.1761 23.8728 28.125 21 28.125C18.1272 28.125 15.7248 30.1761 15.1792 32.8906H8.10938V25.8208C10.4449 25.3513 12.2888 23.5074 12.7583 21.1719H29.2416C29.7873 23.8864 32.1896 25.9375 35.0624 25.9375C38.3363 25.9375 40.9999 23.274 40.9999 20C40.9999 17.1272 38.9488 14.7248 36.2343 14.1792V5.9375C36.2343 5.29031 35.7096 4.76562 35.0624 4.76562H26.8208C26.2752 2.05102 23.8728 0 21 0C18.0578 0 15.6098 2.15156 15.1437 4.96367L10.1296 1.50797C9.35305 0.972891 8.29273 1.53031 8.29273 2.47289V4.76562H4.59375C3.94656 4.76562 3.42188 5.29031 3.42188 5.9375C3.42188 6.58469 3.94656 7.10938 4.59375 7.10938H8.29273V9.40211C8.29273 10.352 9.35984 10.8977 10.1296 10.367L15.1437 6.91133C15.6098 9.72344 18.0578 11.875 21 11.875C23.8728 11.875 26.2752 9.82398 26.8208 7.10938H33.8906V14.1792C31.5551 14.6487 29.7112 16.4926 29.2417 18.8281H12.7583C12.2127 16.1135 9.81031 14.0625 6.9375 14.0625C3.66359 14.0625 1 16.726 1 20C1 22.8728 3.05109 25.2752 5.76562 25.8208V34.0625C5.76562 34.7097 6.29031 35.2344 6.9375 35.2344H15.1792C15.7248 37.9489 18.1272 40 21 40C23.8728 40 26.2752 37.9489 26.8208 35.2344H33.6291V37.5271C33.6291 38.477 34.6963 39.0227 35.466 38.492L40.4931 35.0274C41.1673 34.5628 41.1695 33.5637 40.4931 33.0976ZM10.6365 7.17125V4.70375L12.4266 5.9375L10.6365 7.17125ZM21 9.53125C19.0184 9.53125 17.4062 7.91906 17.4062 5.9375C17.4062 3.95594 19.0184 2.34375 21 2.34375C22.9816 2.34375 24.5938 3.95594 24.5938 5.9375C24.5938 7.91906 22.9816 9.53125 21 9.53125ZM35.0625 16.4062C37.0441 16.4062 38.6562 18.0184 38.6562 20C38.6562 21.9816 37.0441 23.5938 35.0625 23.5938C33.0809 23.5938 31.4688 21.9816 31.4688 20C31.4688 18.0184 33.0809 16.4062 35.0625 16.4062ZM3.34375 20C3.34375 18.0184 4.95594 16.4062 6.9375 16.4062C8.91906 16.4062 10.5312 18.0184 10.5312 20C10.5312 21.9816 8.91906 23.5938 6.9375 23.5938C4.95594 23.5938 3.34375 21.9816 3.34375 20ZM21 37.6562C19.0184 37.6562 17.4062 36.0441 17.4062 34.0625C17.4062 32.0809 19.0184 30.4688 21 30.4688C22.9816 30.4688 24.5938 32.0809 24.5938 34.0625C24.5938 36.0441 22.9816 37.6562 21 37.6562ZM35.9729 35.2962V32.8288L37.763 34.0625L35.9729 35.2962Z" fill="#1F4D0B"/></g><defs><clipPath id="clip0_245_1906"><rect width="40" height="40" fill="white"/></clipPath></defs></svg>