<svg width="40" height="40" viewBox="0 0 40 40" fill="none" xmlns="http://www.w3.org/2000/svg"><path d="M38.8281 1.52344H1.17188C0.524687 1.52344 0 2.04812 0 2.69531V31.1328C0 31.78 0.524687 32.3047 1.17188 32.3047H12.9688V36.1328H10.0781C9.43094 36.1328 8.90625 36.6575 8.90625 37.3047C8.90625 37.9519 9.43094 38.4766 10.0781 38.4766H29.9219C30.5691 38.4766 31.0938 37.9519 31.0938 37.3047C31.0938 36.6575 30.5691 36.1328 29.9219 36.1328H27.0312V32.3047H38.8281C39.4753 32.3047 40 31.78 40 31.1328V2.69531C40 2.04812 39.4753 1.52344 38.8281 1.52344ZM37.6562 6.21094H7.03125V3.86719H37.6562V6.21094ZM2.34375 3.86719H4.6875V29.9609H2.34375V3.86719ZM24.6875 36.1328H15.3125V32.3047H24.6875V36.1328ZM7.03125 29.9609V8.55469H37.6562V29.9609H7.03125Z" fill="#1F4D0B"/><path d="M25.1562 12.0703C25.1562 11.4231 24.6316 10.8984 23.9844 10.8984H10.625C9.97781 10.8984 9.45312 11.4231 9.45312 12.0703C9.45312 12.7175 9.97781 13.2422 10.625 13.2422H23.9844C24.6316 13.2422 25.1562 12.7176 25.1562 12.0703Z" fill="#1F4D0B"/><path d="M20.834 17.9297H24.0235C24.6707 17.9297 25.1954 17.405 25.1954 16.7578C25.1954 16.1106 24.6707 15.5859 24.0235 15.5859H20.834C20.1868 15.5859 19.6621 16.1106 19.6621 16.7578C19.6621 17.405 20.1868 17.9297 20.834 17.9297Z" fill="#1F4D0B"/><path d="M32.2656 21.4456C32.2656 20.7984 31.7409 20.2737 31.0938 20.2737H20.8594C20.2122 20.2737 19.6875 20.7984 19.6875 21.4456C19.6875 22.0927 20.2122 22.6174 20.8594 22.6174H31.0938C31.7409 22.6174 32.2656 22.0927 32.2656 21.4456Z" fill="#1F4D0B"/><path d="M34.1407 24.9612H29.1525C28.5053 24.9612 27.9807 25.4859 27.9807 26.1331C27.9807 26.7802 28.5053 27.3049 29.1525 27.3049H34.1407C34.7878 27.3049 35.3125 26.7802 35.3125 26.1331C35.3125 25.4859 34.7878 24.9612 34.1407 24.9612Z" fill="#1F4D0B"/></svg>