<?xml version="1.0" encoding="UTF-8"?>
<svg width="100px" height="42px" viewBox="0 0 100 42" version="1.1" xmlns="http://www.w3.org/2000/svg" xmlns:xlink="http://www.w3.org/1999/xlink">
    <!-- Generator: sketchtool 54.1 (76490) - https://sketchapp.com -->
    <title>ACE569AC-21EF-4103-80CD-72354FDFF63D</title>
    <desc>Created with sketchtool.</desc>
    <defs>
        <linearGradient x1="57.6693885%" y1="3.37743652%" x2="47.1640247%" y2="93.173734%" id="linearGradient-1">
            <stop stop-color="#5B17B7" offset="0%"></stop>
            <stop stop-color="#982BDC" offset="32.6603184%"></stop>
            <stop stop-color="#3922B4" offset="100%"></stop>
        </linearGradient>
        <linearGradient x1="35.1705863%" y1="48.6216746%" x2="0%" y2="55.1837998%" id="linearGradient-2">
            <stop stop-color="#B64AE3" offset="0%"></stop>
            <stop stop-color="#8F36D1" offset="100%"></stop>
        </linearGradient>
        <linearGradient x1="50%" y1="44.1945603%" x2="23.9909726%" y2="60.7317067%" id="linearGradient-3">
            <stop stop-color="#AB42DD" offset="0%"></stop>
            <stop stop-color="#8A33D1" offset="100%"></stop>
        </linearGradient>
        <linearGradient x1="58.9012945%" y1="13.3814276%" x2="12.8645285%" y2="96.5583279%" id="linearGradient-4">
            <stop stop-color="#8E36D9" offset="0%"></stop>
            <stop stop-color="#7229C9" offset="100%"></stop>
        </linearGradient>
    </defs>
    <g id="Page-1" stroke="none" stroke-width="1" fill="none" fill-rule="evenodd">
        <g id="main-1440-final-" transform="translate(-35.000000, -13.000000)" fill-rule="nonzero">
            <g id="logo-copy" transform="translate(35.000000, 13.000000)">
                <g id="Group-2-Copy-2">
                    <path d="M36.7245356,0.0973262032 C35.8937992,1.04064171 35.0555787,1.97647059 34.2472947,2.93475936 C33.6485657,3.63850267 32.9899639,4.28235294 32.4361397,5.02352941 C32.1741958,5.36791444 31.8299266,5.48770053 31.3958482,5.48770053 C25.0343533,5.4802139 18.6728584,5.4802139 12.3113636,5.4802139 C11.5629524,5.4802139 10.8070571,5.54759358 10.0885824,5.73475936 C8.8387358,6.05668449 7.75353962,6.67807487 6.90783501,7.71122995 C6.31659019,8.42245989 5.94986872,9.23101604 5.68792482,10.084492 C5.53075847,10.6010695 5.47836969,11.1475936 5.47088558,11.7090909 C5.30623512,19.6449198 5.44094913,27.573262 5.40352857,35.5090909 C5.40352857,35.8759358 5.32120335,36.1679144 5.05925944,36.4524064 C4.50543518,37.0588235 3.96657915,37.6727273 3.41275489,38.2791444 C2.70176429,39.0652406 1.55669521,40.3604278 0.853188722,41.1540107 C0.621181263,41.4160428 0.389173803,41.6705882 0.149682232,41.9326203 L2.84217094e-14,41.9326203 C2.84217094e-14,30.8524064 2.84217094e-14,19.7647059 2.84217094e-14,8.68449198 C2.84217094e-14,8.0631016 0.0898093392,7.45668449 0.261943906,6.85775401 C0.396657915,6.39358289 0.568792482,5.86203209 0.718474714,5.54010695 C1.2273943,4.44705882 3.13584276,1.42994652 7.40927048,0.29197861 C7.91819007,0.157219251 8.449562,0.0823529412 8.95848158,0.00748663102 L36.6796309,0.00748663102 C36.7020833,0.0449197861 36.7020833,0.0524064171 36.7245356,0.0973262032 Z" id="Path" fill="url(#linearGradient-1)"></path>
                    <path d="M36.7245356,0.0973262032 C35.8937992,1.04064171 35.0555787,1.97647059 34.2472947,2.93475936 C33.6485657,3.63850267 32.9899639,4.28235294 32.4361397,5.02352941 C32.1741958,5.36791444 31.8299266,5.48770053 31.3958482,5.48770053 C25.0343533,5.4802139 18.6728584,5.4802139 12.3113636,5.4802139 C11.5629524,5.4802139 10.8070571,5.54759358 10.0885824,5.73475936 C8.8387358,6.05668449 7.75353962,6.67807487 6.90783501,7.71122995 C6.31659019,8.42245989 5.94986872,9.23101604 5.68792482,10.084492 C5.53075847,10.5935829 3.48759601,1.68449198 11.4581749,0 L36.6796309,0 C36.7020833,0.0449197861 36.7020833,0.0524064171 36.7245356,0.0973262032 Z" id="Path" fill="url(#linearGradient-2)"></path>
                    <path d="M10.8818983,16.1262032 C10.7247319,15.9764706 10.7097637,15.7743316 10.7097637,15.5721925 C10.7097637,14.3743316 10.7097637,13.1764706 10.7097637,11.9786096 C10.7097637,11.9561497 10.7097637,11.9262032 10.7097637,11.9037433 C10.7696366,11.0278075 11.1064216,10.6983957 11.9895468,10.6983957 C16.7269894,10.6983957 21.4644321,10.6983957 26.2018747,10.6983957 C26.4263981,10.6983957 26.6658896,10.6684492 26.7856354,10.9304813 C26.9128653,11.2 26.8006036,11.4096257 26.6284691,11.6117647 C25.7977327,12.5625668 24.9669963,13.5058824 24.143744,14.4566845 C23.7845067,14.8684492 23.4177852,15.2802139 23.0435796,15.6770053 C22.7217628,16.0213904 22.3700096,16.2010695 21.8685741,16.1935829 C18.3884622,16.171123 14.9158344,16.1860963 11.4357225,16.1786096 C11.2561038,16.1860963 11.0615169,16.2160428 10.8818983,16.1262032 Z" id="Path" fill="url(#linearGradient-3)"></path>
                    <path d="M17.9693519,21.4117647 C16.8167988,22.7743316 16.0259776,23.7001783 15.5968886,24.1893048 C14.818541,25.0802139 14.0252251,25.9561497 13.2543616,26.8545455 C12.9774495,27.1764706 12.6481486,27.3935829 12.2440066,27.513369 C11.937158,27.6032086 10.7846048,27.7379679 10.7846048,26.397861 C10.7846048,25.1251141 10.7696366,23.859893 10.7846048,22.5871658 C10.7920889,22.1529412 11.3084926,21.4117647 12.2814271,21.4117647 C13.9728364,21.4117647 15.6717297,21.4117647 17.3631389,21.4117647 C17.4329906,21.4117647 17.6350616,21.4117647 17.9693519,21.4117647 Z" id="Path" fill="url(#linearGradient-4)"></path>
                </g>
                <g id="Group" transform="translate(27.710843, 4.800000)" fill="#6A67CF">
                    <path d="M17.597027,12.3433469 L17.597027,0.192318436 L24.7387743,0.192318436 L24.7387743,1.17139411 L18.6769985,1.17139411 L18.6769985,6.18915693 L23.8329917,6.18915693 L23.8329917,7.15074911 L18.6769985,7.15074911 L18.6769985,12.3433469 L17.597027,12.3433469 Z M27.9583669,8.77671407 C27.9583669,10.618318 28.9628465,11.5391061 30.9718359,11.5391061 C32.0169749,11.5391061 32.8008174,11.3234785 33.3233869,10.8922169 C33.8459564,10.4609552 34.1072372,9.75579464 34.1072372,8.77671407 L34.1072372,0.192318436 L35.1872087,0.192318436 L35.1872087,8.77671407 C35.1872087,10.0938105 34.8330281,11.0466515 34.1246561,11.6352654 C33.4162841,12.2238793 32.3798702,12.5181818 31.0153832,12.5181818 C29.6508962,12.5181818 28.6231916,12.2238793 27.9322386,11.6352654 C27.2412856,11.0466515 26.8958143,10.0938105 26.8958143,8.77671407 L26.8958143,0.192318436 L27.9583669,0.192318436 L27.9583669,8.77671407 Z M41.441173,0.961592179 C39.5715355,0.961592179 38.6367308,1.67840827 38.6367308,3.11206196 C38.6367308,3.95127388 38.8486585,4.51656787 39.2725205,4.80796089 C39.6963824,5.09935392 40.5266748,5.36743148 41.7634226,5.61220163 C43.0001704,5.85697177 43.8827189,6.19498261 44.4110948,6.62624429 C44.9394706,7.05750597 45.2036545,7.78014983 45.2036545,8.79419756 C45.2036545,10.0996383 44.8814082,11.0408237 44.2369058,11.6177819 C43.5924034,12.1947401 42.6488893,12.4832148 41.4063352,12.4832148 C40.5005481,12.4832148 39.4496185,12.401626 38.253515,12.2384459 L37.6264348,12.1510284 L37.7483671,11.2244033 C39.3393008,11.4225505 40.5702239,11.5216227 41.441173,11.5216227 C42.3121222,11.5216227 42.9740336,11.3089089 43.4269271,10.8834751 C43.8798207,10.4580413 44.1062641,9.83446957 44.1062641,9.01274124 C44.1062641,8.19101291 43.9059488,7.63154669 43.5053122,7.3343258 C43.1046756,7.03710491 42.4659891,6.80690788 41.5892336,6.64372778 C40.7124781,6.48054769 40.0708886,6.33193947 39.6644456,6.19789868 C39.2580027,6.06385789 38.8776939,5.87154137 38.5235079,5.62094337 C38.1693219,5.37034537 37.9167505,5.04981785 37.765786,4.65935119 C37.6148214,4.26888454 37.5393403,3.77643771 37.5393403,3.18199594 C37.5393403,1.06065471 38.8167132,1.77635684e-14 41.3714974,1.77635684e-14 C42.1379327,1.77635684e-14 43.1366061,0.0815888235 44.3675475,0.244768918 L44.9423711,0.332186389 L44.8552766,1.25881158 C43.2527302,1.06066432 42.114707,0.961592179 41.441173,0.961592179 Z M47.5871401,12.3433469 L47.5871401,0.192318436 L48.6671117,0.192318436 L48.6671117,12.3433469 L47.5871401,12.3433469 Z M52.4772048,6.32902489 C52.4772048,8.18228453 52.7210669,9.51393069 53.2087985,10.3240033 C53.69653,11.1340759 54.6574628,11.5391061 56.0916257,11.5391061 C57.5257887,11.5391061 58.4867215,11.1428176 58.974453,10.3502285 C59.4621846,9.55763951 59.7060467,8.23182113 59.7060467,6.37273362 C59.7060467,4.51364611 59.4505721,3.15286109 58.9396152,2.29033773 C58.4286584,1.42781438 57.4764349,0.996559167 56.0829163,0.996559167 C54.642947,0.996559167 53.6733049,1.46278102 53.1739607,2.3952387 C52.9068696,2.87312326 52.723973,3.42093394 52.6252655,4.03868715 C52.5265579,4.65644037 52.4772048,5.41987864 52.4772048,6.32902489 Z M60.820856,6.36399187 C60.820856,8.53195599 60.4811909,10.099627 59.8018506,11.0670518 C59.1225102,12.0344767 57.885781,12.5181818 56.0916257,12.5181818 C54.2974705,12.5181818 53.0607413,12.0228211 52.3814009,11.0320848 C51.7020606,10.0413485 51.3623955,8.47659145 51.3623955,6.33776663 C51.3623955,4.19894182 51.7049637,2.61087365 52.3901104,1.57351447 C53.075257,0.536155301 54.30618,0.0174834942 56.0829163,0.0174834942 C57.8596526,0.0174834942 59.0934787,0.533241414 59.7844317,1.56477273 C60.4753847,2.59630404 60.820856,4.19602776 60.820856,6.36399187 Z M63.4760764,12.3433469 L63.4760764,0.192318436 L65.6011817,0.192318436 L70.6700804,11.3817547 L71.070715,11.3817547 L71.070715,0.192318436 L72.1332676,0.192318436 L72.1332676,12.3433469 L70.0430001,12.3433469 L64.9392636,1.17139411 L64.5560479,1.17139411 L64.5560479,12.3433469 L63.4760764,12.3433469 Z" id="FUSION"></path>
                    <path d="M0,31.8179221 L0,19.6328571 L2.02320811,19.6328571 L5.7731197,30.2925974 L9.50558985,19.6328571 L11.528798,19.6328571 L11.528798,31.8179221 L10.4474281,31.8179221 L10.4474281,20.7549351 L10.2032478,20.7549351 L6.40101188,31.4146753 L5.12778608,31.4146753 L1.32555014,20.7549351 L1.08136985,20.7549351 L1.08136985,31.8179221 L0,31.8179221 Z M13.4880541,31.8179221 L16.9763439,19.6328571 L19.5053541,19.6328571 L22.9762025,31.8179221 L21.9122741,31.8179221 L20.9355529,28.4516883 L15.5287037,28.4516883 L14.5694239,31.8179221 L13.4880541,31.8179221 Z M17.7612092,20.5796104 L15.7903254,27.4874026 L20.6739312,27.4874026 L18.7030474,20.5796104 L17.7612092,20.5796104 Z M26.0168285,27.014026 L26.0168285,31.8179221 L24.9354586,31.8179221 L24.9354586,19.6328571 L29.3830282,19.6328571 C30.6504465,19.6328571 31.5951822,19.92214 32.2172637,20.5007143 C32.8393452,21.0792886 33.1503812,21.9938899 33.1503812,23.2445455 C33.1503812,25.1965033 32.3713376,26.382855 30.813227,26.8036364 L33.3073543,31.8179221 L32.1038943,31.8179221 L29.7144157,27.014026 L26.0168285,27.014026 Z M32.0341285,23.2620779 C32.0341285,22.3503851 31.8190194,21.6783139 31.3887948,21.2458442 C30.9585703,20.8133745 30.2899881,20.5971429 29.3830282,20.5971429 L26.0168285,20.5971429 L26.0168285,26.0497403 L29.3830282,26.0497403 C31.1504372,26.0497403 32.0341285,25.1205288 32.0341285,23.2620779 Z M36.597393,31.8179221 L35.5160231,31.8179221 L35.5160231,19.6328571 L36.597393,19.6328571 L36.597393,25.3835065 L38.6903669,25.3309091 L42.0565666,19.6328571 L43.2949095,19.6328571 L39.6322052,25.7516883 L43.5216483,31.8179221 L42.2309811,31.8179221 L38.7078083,26.3127273 L36.597393,26.3477922 L36.597393,31.8179221 Z M45.4198594,31.8179221 L45.4198594,19.6328571 L52.6929437,19.6328571 L52.6929437,20.6146753 L46.5012293,20.6146753 L46.5012293,25.1380519 L51.6464568,25.1380519 L51.6464568,26.1023377 L46.5012293,26.1023377 L46.5012293,30.8536364 L52.6929437,30.8536364 L52.6929437,31.8179221 L45.4198594,31.8179221 Z M54.2248844,20.6146753 L54.2248844,19.6328571 L62.945609,19.6328571 L62.945609,20.6146753 L59.1433731,20.6146753 L59.1433731,31.8179221 L58.0620032,31.8179221 L58.0620032,20.6146753 L54.2248844,20.6146753 Z M68.2204846,20.4042857 C66.3484264,20.4042857 65.4124113,21.1231097 65.4124113,22.5607792 C65.4124113,23.4023419 65.6246135,23.9692193 66.0490242,24.2614286 C66.4734349,24.5536378 67.3048024,24.8224663 68.5431514,25.0679221 C69.7815005,25.3133779 70.6651918,25.6523355 71.1942517,26.0848052 C71.7233117,26.5172749 71.9878377,27.241943 71.9878377,28.2588312 C71.9878377,29.5679286 71.6651741,30.5117504 71.0198372,31.0903247 C70.3745004,31.668899 69.4297647,31.9581818 68.1856017,31.9581818 C67.2786418,31.9581818 66.2263516,31.8763645 65.0286994,31.7127273 L64.4008072,31.6250649 L64.5228974,30.6958442 C66.1158911,30.8945464 67.3484078,30.9938961 68.2204846,30.9938961 C69.0925615,30.9938961 69.7553299,30.7805865 70.2088098,30.353961 C70.6622898,29.9273355 70.8890264,29.3020171 70.8890264,28.477987 C70.8890264,27.6539569 70.6884517,27.0929236 70.2872964,26.7948701 C69.886141,26.4968167 69.2466276,26.2659748 68.368737,26.1023377 C67.4908463,25.9387005 66.848426,25.789676 66.4414568,25.6552597 C66.0344876,25.5208435 65.6536865,25.3279883 65.2990419,25.0766883 C64.9443973,24.8253884 64.6914988,24.503963 64.5403388,24.1124026 C64.3891789,23.7208422 64.3136,23.227016 64.3136,22.6309091 C64.3136,20.5036257 65.5926268,19.44 68.1507188,19.44 C68.9181464,19.44 69.9181129,19.5218174 71.1506481,19.6854545 L71.7262159,19.7731169 L71.6390087,20.7023377 C70.0343873,20.5036354 68.8948907,20.4042857 68.2204846,20.4042857 Z" id="MARKETS"></path>
                </g>
            </g>
        </g>
    </g>
</svg>